<svg xmlns="http://www.w3.org/2000/svg" width="60" height="60">
    <path fill="#EEE" fill-rule="evenodd" d="M59.844 23.405c-.393-1.141-1.47-1.951-2.745-2.059L39.79 19.87 32.945 4.816C32.44 3.713 31.291 3 30.014 3c-1.277 0-2.427.713-2.931 1.819L20.238 19.87 2.925 21.346c-1.272.11-2.346.918-2.741 2.059s-.03 2.392.932 3.182L14.2 37.368l-3.858 15.969c-.282 1.174.203 2.387 1.24 3.091.557.379 1.209.571 1.866.571.567 0 1.13-.144 1.635-.427l14.931-8.384 14.926 8.384c1.092.617 2.469.561 3.503-.144 1.038-.706 1.522-1.92 1.24-3.091l-3.858-15.969 13.084-10.779c.962-.792 1.33-2.041.935-3.184z"/>
</svg>
